<svg version="1.1" id="Layer_1" xmlns="http://www.w3.org/2000/svg" xmlns:xlink="http://www.w3.org/1999/xlink" x="0px" y="0px"
	 width="100%" viewBox="0 0 1024 1024" enable-background="new 0 0 1024 1024" xml:space="preserve">
<path fill="#040200" opacity="1.000000" stroke="none" 
	d="
M594.000000,1025.000000 
	C397.500000,1025.000000 201.500000,1024.987549 5.500051,1025.093750 
	C1.750743,1025.095703 0.905801,1024.249146 0.906913,1020.500000 
	C1.007246,682.166687 1.007246,343.833344 0.906913,5.500028 
	C0.905801,1.750903 1.750902,0.905800 5.500028,0.906912 
	C343.833344,1.007255 682.166687,1.007255 1020.500000,0.906912 
	C1024.249146,0.905800 1025.094360,1.750902 1025.093262,5.500027 
	C1024.992920,343.833344 1024.992798,682.166687 1025.093140,1020.500000 
	C1025.094238,1024.249146 1024.249390,1025.097168 1020.499939,1025.094238 
	C878.500000,1024.982910 736.500000,1025.000000 594.000000,1025.000000 
z"/>
<path fill="#FDFDFD" opacity="1.000000" stroke="none" 
	d="
M868.120239,702.880493 
	C867.221924,725.108643 856.119690,739.496521 837.066406,749.487305 
	C819.442139,758.728821 802.689514,769.632019 785.548279,779.795349 
	C721.209778,817.942932 656.802856,855.975708 592.571533,894.302979 
	C574.166931,905.285156 555.332031,915.542114 537.466248,927.454956 
	C520.181946,938.980042 502.784637,938.465759 485.282043,927.063293 
	C452.520386,905.720459 418.629089,886.215881 385.012695,866.268982 
	C319.788483,827.567139 254.574860,788.847351 189.286423,750.254089 
	C184.591904,747.479065 179.503540,745.402405 175.056870,742.117615 
	C161.614075,732.187073 155.178284,718.858215 155.193771,702.241821 
	C155.290253,598.750061 155.381317,495.258362 155.444214,391.766632 
	C155.456360,371.768494 155.416458,351.769684 155.254013,331.772339 
	C155.093811,312.049561 163.351562,297.431641 180.451126,287.310303 
	C224.554016,261.205475 268.535126,234.893112 312.441498,208.458694 
	C366.182739,176.103073 419.804108,143.548309 473.459564,111.050446 
	C479.009949,107.688705 484.296967,103.872681 489.952759,100.708153 
	C507.163269,91.078606 523.889404,93.051697 539.659180,103.977684 
	C564.996704,121.532593 591.762207,136.769882 618.064331,152.748764 
	C668.122559,183.159790 718.382385,213.239120 768.586853,243.408981 
	C792.115295,257.548126 815.670532,271.643585 839.289185,285.631195 
	C852.738892,293.596436 863.827209,303.374298 867.374268,319.508484 
	C867.987488,322.298004 868.148621,325.085876 868.148254,327.919220 
	C868.131348,452.745392 868.126404,577.571533 868.120239,702.880493 
z"/>
<path fill="#060403" opacity="1.000000" stroke="none" 
	d="
M351.432434,237.411636 
	C403.629211,206.119919 455.525116,175.036575 507.432526,143.972488 
	C509.338379,142.831924 510.937836,141.198196 513.704651,142.871765 
	C539.740784,158.620453 565.865784,174.222183 592.443665,190.153137 
	C587.395996,193.750061 582.751221,196.813156 578.376953,200.223312 
	C565.352844,210.376816 557.589783,223.151459 560.116089,240.282562 
	C561.491150,249.606949 566.737061,257.635376 570.187378,266.266235 
	C571.488708,269.521576 572.815918,272.720215 573.331787,276.227203 
	C574.576782,284.690460 572.669189,292.074646 566.226196,298.016327 
	C562.679565,301.286926 558.880310,304.342133 555.711121,307.948090 
	C551.938660,312.240387 552.028931,317.427399 555.238342,321.154388 
	C558.629272,325.092163 565.071045,326.439819 569.254761,323.062195 
	C578.039612,315.969940 586.849060,308.709351 592.003723,298.271240 
	C598.380371,285.358582 596.904663,272.504059 591.199463,259.809387 
	C589.427429,255.866409 587.628479,251.921936 585.580566,248.118835 
	C577.658203,233.406204 582.765930,221.681931 594.734192,213.566818 
	C599.667847,210.221573 603.842590,207.174789 603.776245,200.570297 
	C603.741699,197.133667 605.417969,198.017014 607.537415,199.296555 
	C643.433960,220.968079 679.358704,242.593094 715.314880,264.165680 
	C748.542480,284.101196 781.716125,304.130554 815.145752,323.722290 
	C822.316772,327.924927 825.063049,332.779694 825.041870,341.226776 
	C824.746155,459.056671 824.755005,576.887573 824.942932,694.717773 
	C824.954224,701.789246 822.694397,705.740417 816.585510,709.332397 
	C762.084717,741.379333 707.747864,773.705811 653.433899,806.069458 
	C607.409119,833.493896 561.463135,861.051025 515.549988,888.661865 
	C513.120605,890.122803 511.557617,889.863342 509.317963,888.520081 
	C454.650696,855.734558 400.160004,822.646301 345.169769,790.410339 
	C298.813293,763.235596 252.804932,735.477417 206.390472,708.405640 
	C200.765015,705.124512 197.937439,701.272461 197.951141,694.160645 
	C198.178741,576.163879 198.188232,458.166412 197.918060,340.169861 
	C197.899185,331.926483 200.631226,327.304443 207.626663,323.177521 
	C255.592728,294.880493 303.325562,266.188202 351.432434,237.411636 
z"/>
<path fill="#FCFCFC" opacity="1.000000" stroke="none" 
	d="
M363.328125,551.670532 
	C359.921143,513.096802 356.588684,474.983459 353.241852,436.871399 
	C351.060944,412.036591 348.792908,387.207825 347.596039,362.299591 
	C347.000366,349.903412 355.146545,341.225647 367.556488,341.221466 
	C463.034576,341.189117 558.512695,341.194824 653.990784,341.237671 
	C666.235107,341.243164 672.754578,345.445374 675.413330,354.465210 
	C676.186096,357.086700 676.262024,359.756897 676.043457,362.382416 
	C673.919006,387.900909 672.453125,413.479553 669.307800,438.904358 
	C668.884827,442.323242 669.473328,443.473816 673.194336,443.443848 
	C681.985779,443.373077 690.851685,442.596985 699.535156,444.789093 
	C731.387451,452.830109 750.861206,483.446442 744.448792,515.698792 
	C741.130005,532.391418 734.346069,548.028870 728.952515,564.075195 
	C722.124573,584.388550 715.216309,604.717590 707.186340,624.572266 
	C698.855652,645.170410 681.926086,654.080933 660.344238,654.811218 
	C651.265198,655.118530 650.694214,654.898682 651.164795,663.600281 
	C651.567810,671.053528 648.700989,675.292786 642.183594,678.336182 
	C635.461304,681.475281 629.390015,685.971313 622.206299,688.534607 
	C624.279541,662.321594 626.237549,636.467651 628.389648,610.629822 
	C631.176392,577.171265 634.103943,543.724365 636.996643,510.274658 
	C640.560303,469.066467 643.491882,427.803680 647.707764,386.651367 
	C648.401184,379.883362 648.577332,373.058838 649.385559,366.307465 
	C649.835327,362.550049 648.452209,362.045532 645.102051,362.051270 
	C581.616699,362.160309 518.131104,362.143494 454.645569,362.155304 
	C429.317932,362.160004 403.989624,362.260529 378.663300,362.083130 
	C374.775879,362.055939 373.943512,363.112701 374.267181,366.847839 
	C377.640747,405.777954 380.617981,444.743530 384.175781,483.656281 
	C387.855194,523.899963 390.589905,564.221130 394.626282,604.437561 
	C397.350342,631.579163 399.039490,658.824585 401.183502,686.024170 
	C401.234589,686.672424 401.189941,687.328247 401.189941,688.902466 
	C392.037811,683.891479 382.994476,679.942871 375.503357,673.296997 
	C373.118469,671.181213 373.253998,668.283447 373.016541,665.479431 
	C369.817139,627.696167 366.605316,589.914001 363.328125,551.670532 
z"/>
<path fill="#FDFDFD" opacity="1.000000" stroke="none" 
	d="
M405.865448,517.022156 
	C404.532593,503.551361 403.416382,490.468445 402.291595,477.386292 
	C400.497406,456.518158 398.762177,435.644592 396.839661,414.788269 
	C396.499512,411.098297 396.815186,409.997437 401.129822,410.802948 
	C430.890991,416.358826 460.909698,419.289032 491.206696,420.315399 
	C523.683899,421.415619 555.955505,419.945648 588.168640,416.068665 
	C589.158752,415.949524 590.160828,415.930786 591.596619,415.856842 
	C594.044312,418.127533 593.557983,420.856842 593.269165,423.468842 
	C590.635620,447.286194 588.998535,471.202515 586.366150,495.011108 
	C585.197998,505.576843 584.724182,516.240967 582.566345,527.133545 
	C582.263977,527.820618 582.139954,528.092407 581.753418,528.723938 
	C580.564941,529.897766 579.450806,530.105591 577.866333,530.030945 
	C574.683899,529.124817 574.600403,526.508423 573.926208,524.368408 
	C570.218750,512.601074 564.824585,501.828094 555.793640,493.168976 
	C554.621094,492.044769 553.587891,490.700165 551.929016,490.143890 
	C556.427002,504.782379 555.342102,518.453369 545.348145,530.676941 
	C541.702698,535.135742 537.157715,538.585999 532.144836,541.216614 
	C525.499451,544.703918 519.019592,548.480103 512.567139,552.274963 
	C504.110840,557.248352 496.560944,563.182007 494.806427,573.884949 
	C494.215271,577.491089 494.730804,580.816711 495.724457,584.207153 
	C496.215607,585.883057 497.517212,587.817200 495.610077,589.262878 
	C493.778656,590.651184 491.782135,589.687622 489.940460,588.851624 
	C478.927368,583.852844 473.283905,571.338745 476.565674,559.644348 
	C479.020081,550.898254 484.399719,544.366638 491.346100,538.832703 
	C499.352509,532.454346 508.637634,528.182556 517.267456,522.834167 
	C525.077881,517.993591 532.166992,512.486389 534.101929,502.796051 
	C535.711914,494.732178 534.631287,486.865326 531.487000,479.298096 
	C527.070068,468.667786 520.246765,459.805847 511.196960,451.770416 
	C509.405396,457.402039 507.642365,462.539032 504.396484,467.013824 
	C498.688538,474.882843 490.973602,480.422241 482.889557,485.407257 
	C469.131287,493.891235 459.574432,505.559326 454.531708,520.926575 
	C453.964813,522.654114 453.441681,524.459534 451.333923,525.627441 
	C444.770660,525.518127 438.726990,524.197083 432.601074,523.584229 
	C428.151947,523.139160 427.488922,523.804382 427.935425,528.122253 
	C431.652039,564.062927 434.857605,600.052795 438.257904,636.023560 
	C438.916138,642.986755 439.272156,649.978027 440.288025,656.908264 
	C440.457367,658.063477 440.425903,659.236877 440.264099,660.398438 
	C439.847809,663.386963 438.167145,665.277832 435.211456,665.833008 
	C432.304932,666.378906 430.524902,664.747070 429.176575,662.395813 
	C426.997955,658.596802 427.214172,654.284607 426.920349,650.208557 
	C425.387390,628.944641 422.025513,607.858948 420.654144,586.597351 
	C419.485352,568.476746 417.698639,550.429504 415.948395,532.366211 
	C415.267761,525.341614 414.298340,519.159363 405.865448,517.022156 
z"/>
<path fill="#FBFBFB" opacity="1.000000" stroke="none" 
	d="
M615.495422,708.494873 
	C651.645813,687.232666 688.032715,667.101746 723.589905,645.544861 
	C725.153137,644.597229 726.812317,643.805176 728.356750,642.829773 
	C750.340515,628.946472 773.437744,646.293701 779.026794,664.010498 
	C785.988770,686.079651 777.596497,708.669556 757.343994,720.881165 
	C728.749939,738.122314 699.872559,754.894531 671.083496,771.811340 
	C636.259033,792.274597 601.403564,812.685181 566.553284,833.104431 
	C560.080261,836.897095 560.062256,836.866333 556.075684,830.844727 
	C550.794678,822.867920 550.842651,822.957336 559.341370,818.395630 
	C563.874634,815.962402 568.256531,813.234497 572.620667,810.502075 
	C578.845093,806.604919 581.236572,800.651733 579.804871,793.753845 
	C578.481445,787.377380 574.964661,782.374207 567.401489,782.335327 
	C565.368408,782.324890 565.966003,781.069275 566.114746,779.985413 
	C567.618835,769.023132 556.425171,764.398743 548.490662,766.726318 
	C541.660217,768.729980 535.920349,772.741882 530.075928,776.510925 
	C527.024170,778.478943 525.233093,778.559937 523.533447,774.986511 
	C521.985291,771.731689 519.855713,768.753540 517.982422,765.653381 
	C521.091858,763.777710 524.179077,761.864075 527.314087,760.032227 
	C556.604370,742.916931 585.902893,725.815735 615.495422,708.494873 
z"/>
<path fill="#FBFBFB" opacity="1.000000" stroke="none" 
	d="
M253.652725,650.660278 
	C266.843048,636.679565 283.409882,634.214355 299.927826,643.930176 
	C321.008850,656.329956 341.853455,669.132385 362.952393,681.501221 
	C402.863342,704.898315 442.717163,728.395935 483.064880,751.041138 
	C489.735840,754.785217 496.111786,759.051758 502.722900,762.907410 
	C504.665924,764.040466 505.529022,764.916382 503.997711,767.032715 
	C501.954193,769.856934 499.978973,772.749268 498.223602,775.757690 
	C496.635712,778.479065 495.128052,776.674805 493.708435,775.864624 
	C485.043182,770.918884 476.331787,766.043030 467.831177,760.825562 
	C464.839722,758.989563 463.506195,759.585022 461.769562,762.359802 
	C454.092194,774.626709 446.455353,786.908936 439.559814,799.643494 
	C438.346466,801.884216 438.600708,802.751343 440.895691,804.071960 
	C449.957642,809.286804 458.800598,814.880493 467.803436,820.200623 
	C470.510132,821.799988 471.606415,823.028748 469.510284,826.279053 
	C463.572845,835.485474 463.647247,835.765503 454.079559,830.194336 
	C407.080536,802.827026 360.129822,775.376526 313.180389,747.924133 
	C297.817566,738.941223 281.841919,730.975464 267.204407,720.789429 
	C252.468750,710.535095 242.958145,697.042480 243.314590,678.357788 
	C243.508453,668.195007 246.408005,658.729309 253.652725,650.660278 
z"/>
<path fill="#997B5C" opacity="1.000000" stroke="none" 
	d="
M405.479309,517.044434 
	C416.242889,519.056946 415.914642,519.096191 417.185333,529.716858 
	C421.665833,567.165344 423.159363,604.894348 427.917175,642.314270 
	C428.524231,647.088806 428.698853,651.917480 429.119843,656.717102 
	C429.220459,657.863953 429.314056,659.074280 429.745728,660.116699 
	C430.727539,662.487671 431.255493,665.626343 435.017120,664.803345 
	C438.478607,664.046082 439.328857,661.551270 438.867493,658.364136 
	C437.773682,650.807617 437.297638,643.198730 436.692017,635.591858 
	C435.348053,618.712036 433.679871,601.856873 432.034027,585.002441 
	C430.192932,566.148071 428.230347,547.305603 426.320892,528.457947 
	C426.186737,527.133667 426.090240,525.804321 425.914337,524.485657 
	C425.531158,521.613586 426.409698,520.766724 429.486877,521.359253 
	C436.651306,522.738953 443.899323,523.684631 451.501160,524.883423 
	C453.466919,526.791077 452.404724,528.775024 452.136200,530.660156 
	C448.476959,556.348694 457.269592,577.197693 476.612366,593.994690 
	C481.979492,598.655396 488.795624,600.640747 495.110535,604.314453 
	C496.461395,606.452820 496.307312,608.446045 495.930450,610.419556 
	C491.323181,634.548279 478.739807,652.925293 456.804596,664.519287 
	C449.756378,668.244629 442.430756,671.433228 435.273560,675.738403 
	C434.675690,676.071228 434.351807,676.151123 434.024414,676.212402 
	C420.405884,678.763672 419.099976,677.456238 417.989044,663.956848 
	C415.630920,635.301819 412.804199,606.685730 410.283173,578.043640 
	C408.739075,560.501160 407.406616,542.940186 405.976349,525.387695 
	C405.760803,522.742859 405.529877,520.099182 405.479309,517.044434 
z"/>
<path fill="#795B3F" opacity="1.000000" stroke="none" 
	d="
M435.463196,676.088257 
	C434.982666,673.374939 437.205292,672.905273 438.919189,672.037781 
	C445.752441,668.579285 452.906586,665.656799 459.417725,661.678040 
	C480.246490,648.950195 492.417603,630.480103 494.965302,605.552673 
	C497.171722,602.924683 499.701630,604.302673 502.036804,604.631653 
	C520.349670,607.211243 537.185608,603.550781 551.666321,591.898376 
	C566.809021,579.713196 574.927734,563.686951 575.629028,544.077942 
	C575.800049,539.295532 574.875854,534.451355 576.636047,529.442200 
	C577.981262,529.018616 579.047302,528.887817 580.514648,528.799438 
	C582.191284,530.031677 581.962463,531.559265 581.831543,533.046631 
	C580.022339,553.602783 578.471436,574.188965 574.640381,594.932129 
	C573.265015,608.350464 573.354553,621.538086 569.603516,634.227783 
	C564.888306,650.179077 555.747437,662.745972 541.215271,671.175598 
	C537.588867,673.279053 533.734741,674.698547 529.283447,675.650574 
	C497.942352,675.974487 466.933746,676.075500 435.463196,676.088257 
z"/>
<path fill="#F9F9F9" opacity="1.000000" stroke="none" 
	d="
M400.203674,379.185669 
	C474.992523,379.182953 549.303406,379.160522 623.613953,379.289581 
	C625.449158,379.292786 628.908875,377.034119 629.235107,381.668549 
	C629.797546,389.658539 629.233276,391.103455 624.538818,392.058319 
	C598.626099,397.328735 572.446899,400.366089 546.052917,401.915009 
	C528.463501,402.947235 510.862885,403.455048 493.284332,402.800995 
	C462.232239,401.645660 431.292877,399.045410 400.817200,392.566925 
	C399.253754,392.234558 396.613739,392.910278 396.179901,390.535095 
	C395.556152,387.120117 395.013275,383.558929 395.352478,380.151428 
	C395.539642,378.270874 398.209259,379.514282 400.203674,379.185669 
z"/>
<path fill="#FBFBFB" opacity="1.000000" stroke="none" 
	d="
M232.180328,393.108093 
	C234.657867,393.103088 236.668121,393.227478 238.655853,393.069244 
	C244.914169,392.571167 249.910080,393.270233 254.386551,399.238312 
	C259.918823,406.613983 271.043030,407.429901 279.985046,403.074707 
	C287.931946,399.204163 292.132355,391.792694 291.242462,383.211243 
	C290.364929,374.749115 283.919495,367.495453 275.379150,365.358704 
	C266.080841,363.032318 255.315521,367.607269 250.815796,376.271667 
	C249.034225,379.702148 246.978790,381.082062 243.102936,380.698517 
	C238.640533,380.256897 234.111450,380.321198 229.617661,380.429382 
	C227.032776,380.491577 226.546951,379.647552 227.053711,377.228973 
	C231.241928,357.240631 251.211578,341.968201 272.206665,342.800049 
	C292.987366,343.623352 310.354126,359.373718 312.825195,379.978821 
	C313.856323,388.576935 312.256927,396.944580 308.235382,404.613708 
	C307.085815,406.805939 307.263184,407.641602 309.047333,408.959625 
	C311.855469,411.034210 314.387299,413.490082 317.238495,415.496979 
	C319.922028,417.385864 319.706696,418.874603 317.439453,420.928986 
	C314.481415,423.609314 311.621704,426.426361 308.974121,429.410309 
	C307.438324,431.141174 306.469391,431.022614 304.961029,429.495544 
	C301.926086,426.422943 299.107361,421.799988 295.507629,421.023346 
	C292.334106,420.338715 288.387817,424.316864 284.383636,425.473572 
	C261.658997,432.038025 239.220856,422.167450 229.762909,401.299683 
	C229.215897,400.092743 228.750671,398.846619 228.291840,397.602325 
	C227.089462,394.341797 227.754074,392.471924 232.180328,393.108093 
z"/>
<path fill="#FDFDFD" opacity="1.000000" stroke="none" 
	d="
M584.115112,713.234985 
	C577.620117,716.571350 571.167725,718.171570 564.145142,718.143677 
	C529.323914,718.005554 494.498108,718.360352 459.681519,717.929260 
	C442.725555,717.719360 430.458984,708.780334 421.606934,694.560364 
	C423.342407,693.158630 424.878845,693.699768 426.274780,693.701172 
	C483.422058,693.758118 540.569275,693.848083 597.716492,693.969116 
	C599.143555,693.972107 601.121338,693.196350 601.901123,694.468689 
	C602.890259,696.082458 601.133972,697.512207 600.258850,698.821716 
	C596.200378,704.894775 590.681458,709.386597 584.115112,713.234985 
z"/>
<path fill="#FBFBFB" opacity="1.000000" stroke="none" 
	d="
M515.078613,235.664825 
	C517.514893,244.246002 521.404907,251.789154 524.870117,259.503571 
	C534.154175,280.172119 532.011963,301.985443 513.689331,318.033295 
	C510.562286,320.772095 507.693573,323.816895 504.476440,326.439270 
	C499.785828,330.262665 494.069336,329.940643 490.083740,325.929810 
	C486.336975,322.159302 486.355011,315.945435 490.377167,311.463837 
	C492.366302,309.247437 494.661896,307.273987 496.982788,305.392883 
	C507.763489,296.654846 510.084656,285.578705 506.368134,272.669708 
	C503.964203,264.320007 499.879822,256.672638 496.651917,248.668747 
	C489.954651,232.062195 489.203125,215.679306 499.067596,199.983017 
	C504.536957,191.280228 512.000061,184.364395 520.515808,178.666351 
	C525.792236,175.135818 531.533020,176.227478 534.909668,181.041809 
	C538.200623,185.733902 537.031860,190.781052 531.565430,194.708847 
	C517.553955,204.776382 511.057037,217.868607 515.078613,235.664825 
z"/>
<path fill="#FBFBFB" opacity="1.000000" stroke="none" 
	d="
M468.361755,205.089478 
	C465.875763,208.592743 462.577026,210.617020 459.538147,212.919022 
	C446.440399,222.840805 443.467285,233.645081 449.918762,248.712555 
	C452.205780,254.053864 454.917358,259.212189 457.255432,264.533020 
	C465.920013,284.250916 462.366028,301.074158 446.601929,315.554626 
	C443.662628,318.254578 440.853851,321.098175 437.883850,323.762878 
	C432.880615,328.251862 426.093750,327.941895 421.896057,323.132660 
	C418.380035,319.104401 419.163940,312.708588 423.743347,308.475006 
	C425.942810,306.441589 428.128418,304.376923 430.473999,302.520660 
	C439.775879,295.159332 441.073029,285.510590 437.635468,275.091492 
	C435.251740,267.866516 431.623260,261.057892 428.659180,254.017624 
	C420.263947,234.077438 424.115631,217.642715 440.521179,203.389313 
	C444.787567,199.682602 449.144806,196.095795 453.899872,192.987610 
	C458.175781,190.192642 462.348755,189.862946 466.317657,193.134766 
	C470.136383,196.282822 470.803833,200.333130 468.361755,205.089478 
z"/>
<path fill="#F6F6F5" opacity="1.000000" stroke="none" 
	d="
M792.291138,401.390930 
	C789.642578,402.469269 787.432983,402.982056 788.263916,406.672028 
	C788.945740,409.700378 788.702637,413.631897 784.379333,413.895569 
	C780.156921,414.153107 779.009888,411.029694 778.978516,407.177460 
	C778.940369,402.509949 769.473022,397.918182 765.517395,400.505371 
	C764.960754,400.869446 764.459839,401.475922 763.859741,401.592590 
	C755.963318,403.127747 755.722412,408.784271 756.266113,415.120056 
	C756.447815,417.237366 756.853088,418.649017 758.622620,420.114227 
	C762.799438,423.572784 762.857849,429.769440 759.136536,433.359344 
	C755.294922,437.065369 748.689392,436.930389 745.190491,433.074310 
	C741.552490,429.064880 742.178040,423.893433 746.768311,420.028992 
	C750.989075,416.475616 749.902954,405.867371 745.070435,403.473297 
	C744.028564,402.957184 742.756775,402.688110 741.964661,401.919891 
	C736.196106,396.325653 731.803223,402.009369 727.021729,403.772156 
	C725.307617,404.404114 726.029724,406.493988 726.305237,407.819153 
	C727.047119,411.387787 725.586243,413.486786 722.200867,413.805328 
	C718.233826,414.178589 717.004578,411.617493 717.244629,408.058167 
	C717.423706,405.404144 717.771423,403.064148 713.991028,402.104065 
	C711.189270,401.392548 711.303833,398.387909 712.638855,396.257629 
	C714.450134,393.367279 717.051392,393.456604 720.058838,394.825836 
	C721.669556,395.559113 721.799011,399.682373 724.925964,397.052460 
	C728.133911,394.354462 734.491516,394.360321 732.838623,387.516449 
	C732.458496,385.942505 732.524292,384.147614 732.834656,382.541290 
	C733.781738,377.639099 731.599915,374.932404 727.257446,373.019165 
	C724.551941,371.827148 722.703186,370.660217 720.148315,373.677277 
	C717.633240,376.647278 714.638245,375.145935 712.594482,372.423340 
	C710.438110,369.550690 712.309143,367.333313 714.752441,366.548065 
	C718.457458,365.357300 717.123535,362.704376 717.103760,360.530060 
	C717.074402,357.292084 717.555664,354.976379 721.590881,354.970215 
	C725.559021,354.964142 726.221252,357.124542 726.153931,360.448151 
	C726.117798,362.232941 725.026672,365.541382 727.193481,365.602295 
	C731.834778,365.732727 734.756409,373.603821 740.335510,368.386536 
	C740.928894,367.831635 741.740845,367.505188 742.464233,367.095459 
	C748.896423,363.452423 750.482178,359.951111 749.046082,352.925659 
	C748.815552,351.798065 748.352112,351.307404 747.334290,350.840668 
	C742.312866,348.538055 742.168213,344.046417 743.346375,339.771790 
	C744.477051,335.669617 748.066772,334.056213 752.267334,333.867401 
	C756.552734,333.674713 759.933533,335.164703 761.281250,339.369354 
	C762.643005,343.618073 762.008362,347.507568 757.988403,350.400208 
	C754.837646,352.667419 755.449646,362.709839 758.719421,364.705048 
	C759.427856,365.137299 760.174011,365.507355 760.901184,365.909088 
	C769.664246,370.750702 770.136902,370.656830 777.946106,365.066284 
	C779.708008,363.804962 778.675415,362.379333 778.729675,361.098694 
	C778.864746,357.913452 778.844360,354.993195 783.296448,354.980072 
	C788.031433,354.966125 788.324768,358.067169 787.872253,361.414276 
	C787.493164,364.218628 787.841919,365.988373 790.943420,366.931824 
	C793.637939,367.751434 794.517517,370.079346 792.880615,372.484436 
	C791.279541,374.836914 788.390869,376.800812 786.223328,374.151825 
	C781.630249,368.538666 778.048767,373.700073 774.097412,374.617065 
	C772.518616,374.983429 772.490479,376.516907 772.539795,377.903076 
	C772.622681,380.233429 772.931213,382.593262 772.682129,384.890472 
	C772.080139,390.442749 773.213684,394.354828 779.190063,396.760254 
	C782.138062,397.946808 783.066223,397.282227 784.789551,395.597504 
	C786.716919,393.713409 788.992615,392.835968 791.416199,394.954681 
	C793.419250,396.705811 795.194275,398.517639 792.291138,401.390930 
z"/>
<path fill="#43311D" opacity="1.000000" stroke="none" 
	d="
M616.552856,522.604736 
	C616.958496,534.800964 615.737427,546.650818 614.380615,558.499146 
	C613.458252,566.552612 612.785156,574.635132 612.037170,582.708069 
	C610.403809,600.337036 608.451904,617.945679 607.292542,635.606140 
	C606.499878,647.680481 605.002258,659.674316 604.175659,671.727539 
	C603.929565,675.316772 602.752563,676.318604 599.425354,676.104858 
	C595.944946,675.881287 592.439148,676.052490 588.477783,676.036438 
	C586.227722,670.319580 587.584045,664.537964 587.783142,658.819763 
	C587.909302,655.196838 588.424377,651.553955 588.598755,647.448059 
	C591.887817,624.239319 593.279541,601.298706 595.580139,578.449585 
	C597.297668,561.391663 598.671631,544.298889 600.815979,526.830444 
	C601.143738,525.814148 601.454712,525.299927 602.226196,524.580078 
	C607.070557,523.293823 611.451660,521.552002 616.552856,522.604736 
z"/>
<path fill="#D3DBE2" opacity="1.000000" stroke="none" 
	d="
M603.265503,524.523193 
	C602.693176,525.029724 602.424011,525.187866 602.010864,525.533508 
	C595.463196,528.531433 588.801880,529.621704 581.478699,528.472595 
	C582.410339,516.725220 583.813843,505.257446 584.976440,493.765320 
	C586.705078,476.677856 588.294800,459.576111 589.880981,442.474640 
	C590.674805,433.915192 591.330078,425.342865 592.041931,416.312439 
	C598.715698,414.719025 605.395508,413.589569 612.517151,412.438477 
	C615.205750,416.747406 613.592407,421.245117 613.196777,425.562378 
	C610.695618,452.856293 608.088379,480.141541 605.388733,507.416351 
	C604.836548,512.995728 605.414124,518.727600 603.265503,524.523193 
z"/>
<path fill="#F8F8F7" opacity="1.000000" stroke="none" 
	d="
M273.861572,571.640015 
	C273.497528,565.542603 275.591949,561.327332 280.832336,558.621277 
	C285.743896,556.085083 290.244110,556.971802 294.476501,559.814026 
	C298.468964,562.495056 299.814819,566.651550 298.975494,571.207886 
	C298.365906,574.516968 299.382904,576.519775 302.230713,577.914551 
	C302.669403,578.129395 303.053864,578.488831 303.407867,578.837646 
	C307.616394,582.984619 311.312988,583.447815 316.411407,579.280212 
	C320.076202,576.284485 323.941132,574.615662 323.062988,568.842773 
	C322.721069,566.594971 322.573273,565.277222 320.282013,564.022217 
	C315.885193,561.614075 315.141205,557.338562 316.399902,552.743652 
	C317.836151,547.500549 321.992615,544.479248 327.442749,544.509521 
	C331.905212,544.534302 335.941040,547.625671 337.441650,552.168640 
	C338.686035,555.935730 336.777374,561.381775 333.480408,563.696411 
	C332.249481,564.560608 329.852051,564.213623 330.002533,566.543335 
	C330.225891,570.000854 329.101593,573.651428 330.511261,576.877747 
	C332.083954,580.477112 339.236603,583.569763 343.186890,582.957703 
	C349.145569,582.034485 354.757111,586.606873 355.181396,592.731079 
	C355.621124,599.078552 350.699127,604.529419 344.448181,604.617615 
	C338.457001,604.702148 333.824524,599.821777 333.810150,593.738464 
	C333.806366,592.129517 335.753357,590.276184 333.384979,588.807251 
	C330.293457,586.889832 327.844086,583.718323 324.223663,582.971375 
	C321.841492,582.479858 320.539185,585.701660 318.373993,586.364990 
	C311.789368,588.382263 311.440582,593.163940 312.126465,598.831665 
	C312.370148,600.845093 312.948914,602.103516 314.545471,603.302307 
	C318.549835,606.309082 320.212799,610.232666 318.180542,615.119995 
	C316.266998,619.721924 312.774628,622.230286 307.729584,622.125854 
	C303.330292,622.034851 299.020660,618.437439 297.875183,614.188171 
	C296.628265,609.562378 298.554169,604.950623 302.888214,602.184021 
	C305.773254,600.342407 306.317291,590.409912 303.611023,588.322266 
	C302.300812,587.311523 300.778687,586.555359 299.551422,585.460999 
	C296.288666,582.551392 293.377014,580.869080 288.346954,582.585083 
	C282.197174,584.682922 276.342957,579.744446 273.861572,571.640015 
z"/>
<path fill="#AAB5C1" opacity="1.000000" stroke="none" 
	d="
M603.381470,524.961182 
	C603.149658,509.807861 605.234985,494.907104 606.669250,479.939178 
	C607.803345,468.102905 608.835815,456.248199 609.984009,444.407745 
	C610.988281,434.052032 611.961548,423.693359 612.953735,412.876404 
	C614.586426,412.164764 616.219238,411.943054 617.840393,411.655579 
	C626.839783,410.059723 626.904175,410.059631 626.169800,418.950378 
	C623.462158,451.732330 620.712830,484.510864 617.953796,517.288513 
	C617.819092,518.889404 617.443909,520.470154 617.043701,522.458313 
	C612.537048,523.586060 608.167236,524.315796 603.381470,524.961182 
z"/>
<path fill="#5A422A" opacity="1.000000" stroke="none" 
	d="
M589.721924,646.752502 
	C589.489685,656.404907 589.381897,665.832214 588.024231,675.597168 
	C568.636536,676.024231 549.261841,676.026611 529.419067,675.951294 
	C529.324280,673.213257 531.804688,674.000488 533.297913,673.394165 
	C552.393555,665.640869 563.618958,651.208557 568.890015,631.713928 
	C571.968750,620.327148 571.856079,608.537537 573.052002,596.463745 
	C577.894104,594.930054 581.621765,598.031494 579.394714,601.677307 
	C576.328613,606.696533 577.869995,611.655334 577.976868,616.627808 
	C578.048157,619.941345 578.550598,623.247681 577.992126,626.555847 
	C577.613831,628.796936 577.924377,630.843811 579.260071,632.721069 
	C579.934631,633.669189 580.888245,634.693115 580.821350,635.794556 
	C580.441589,642.043213 583.968201,645.013794 589.721924,646.752502 
z"/>
<path fill="#F9F9F9" opacity="1.000000" stroke="none" 
	d="
M302.420410,474.396912 
	C305.237183,469.479065 307.839447,464.859192 310.770844,459.655029 
	C320.627625,476.404358 330.304901,492.848602 340.230774,509.715332 
	C320.682892,509.715332 301.526093,509.715332 281.701508,509.715332 
	C288.592224,497.946320 295.399048,486.320618 302.420410,474.396912 
z"/>
<path fill="#F6F6F5" opacity="1.000000" stroke="none" 
	d="
M683.355225,294.465607 
	C677.332825,294.287201 680.667175,290.097015 680.016602,287.799561 
	C679.252808,285.102081 681.307739,285.044495 683.312683,285.051788 
	C693.634705,285.089386 703.958069,285.128967 714.278259,284.979645 
	C716.396912,284.949005 716.800659,285.535553 716.643738,287.482605 
	C716.281311,291.980865 715.621521,295.892670 711.837463,299.407074 
	C706.057739,304.774841 701.192993,311.127808 695.124207,317.983826 
	C701.758423,317.983826 707.325928,318.283203 712.842957,317.884491 
	C716.902710,317.591125 716.962585,319.590942 716.909973,322.590240 
	C716.857117,325.605804 717.176025,327.939148 712.687622,327.737396 
	C702.880859,327.296722 693.045959,327.512177 683.224792,327.331848 
	C681.722229,327.304230 679.584412,328.319366 678.784851,326.274872 
	C677.977844,324.211548 678.341064,322.134247 679.984009,320.295135 
	C685.634521,313.969788 691.159180,307.532104 696.788269,301.187347 
	C698.419861,299.348419 700.106079,297.584106 701.471375,294.465485 
	C695.228943,294.465485 689.524536,294.465485 683.355225,294.465607 
z"/>
<path fill="#F8F8F7" opacity="1.000000" stroke="none" 
	d="
M792.329956,609.267700 
	C784.158936,616.700867 774.874939,617.886230 765.477417,612.926086 
	C758.220459,609.095886 753.814270,600.196716 755.121460,591.438293 
	C756.393982,582.912292 760.757019,576.769287 769.216980,573.842590 
	C777.838379,570.860168 785.372131,572.900024 791.488953,579.169373 
	C797.913574,585.754028 799.670959,593.782837 796.223938,602.536743 
	C795.326111,604.816895 793.814575,606.855530 792.329956,609.267700 
z"/>
<path fill="#F7F7F7" opacity="1.000000" stroke="none" 
	d="
M301.389740,305.527893 
	C304.129883,289.003906 322.102631,281.674500 334.638733,289.784485 
	C343.444122,295.480957 346.696350,306.810059 342.548431,316.611664 
	C338.612335,325.912750 328.545807,331.039734 318.460876,328.879639 
	C307.620697,326.557831 300.859070,317.511536 301.389740,305.527893 
z"/>
<path fill="#F8F8F7" opacity="1.000000" stroke="none" 
	d="
M222.541122,614.726990 
	C219.753326,613.964661 219.975586,612.039368 219.976044,610.206177 
	C219.978836,598.911987 220.088196,587.615906 219.900055,576.324829 
	C219.849609,573.297302 220.976089,572.773254 223.619354,572.884216 
	C228.760574,573.100037 233.917328,572.924683 239.061508,573.096008 
	C249.357025,573.438660 256.743286,581.728333 257.000916,593.077515 
	C257.263550,604.647949 250.603821,612.994873 240.407883,614.244446 
	C234.601151,614.956116 228.798279,614.558411 222.541122,614.726990 
z"/>
<path fill="#F6F6F5" opacity="1.000000" stroke="none" 
	d="
M642.816162,275.839172 
	C637.254211,275.523560 633.736084,277.846558 632.088562,282.669495 
	C630.483337,287.368622 631.581665,291.454224 635.495422,294.695618 
	C638.994324,297.593323 643.633423,298.492126 646.461487,295.591492 
	C650.190491,291.766846 652.756287,293.976868 656.005676,295.206268 
	C658.547546,296.168030 658.162659,297.466248 657.052185,299.354584 
	C653.604248,305.217743 644.971252,308.376556 637.277771,306.451843 
	C627.582764,304.026337 620.742188,295.207611 621.151489,285.662109 
	C621.610291,274.962769 629.045471,266.381622 639.592590,265.396790 
	C646.690247,264.734039 652.941650,267.277252 657.584900,273.079285 
	C659.121094,274.998810 658.932312,276.110443 656.589539,277.047394 
	C653.344727,278.345032 650.273499,281.463989 646.919617,277.029755 
	C646.286316,276.192474 644.489441,276.235352 642.816162,275.839172 
z"/>
<path fill="#856C53" opacity="1.000000" stroke="none" 
	d="
M801.446838,467.605530 
	C805.879395,472.127167 805.815979,474.820312 801.020691,477.677094 
	C790.749207,483.796387 780.360168,489.719177 769.989868,495.671234 
	C767.372375,497.173523 764.496094,498.066101 762.588257,494.815918 
	C760.586731,491.405914 762.112671,488.825409 765.297913,486.984711 
	C772.486877,482.830383 779.613220,478.563965 786.871582,474.535126 
	C789.882935,472.863647 790.110291,471.729919 786.992615,469.979950 
	C780.184814,466.158783 773.444092,462.216858 766.711365,458.263947 
	C763.989929,456.666107 760.591064,455.001862 762.793823,451.064270 
	C764.927368,447.250458 768.089050,447.431274 771.697266,449.669281 
	C781.433350,455.708069 791.318787,461.505951 801.446838,467.605530 
z"/>
<path fill="#F8F8F7" opacity="1.000000" stroke="none" 
	d="
M773.953247,550.948730 
	C768.458679,556.506348 766.756653,556.786926 763.627502,553.181458 
	C762.136902,551.464050 762.009399,550.151306 763.724304,548.566406 
	C766.044006,546.422424 768.009277,543.820007 770.549683,542.007141 
	C774.449036,539.224548 773.528992,537.092041 770.492920,534.476318 
	C768.358704,532.637634 766.633301,530.332581 764.578003,528.391724 
	C762.435974,526.368896 761.637451,524.590088 764.135376,522.142029 
	C766.515503,519.809448 768.612305,519.594055 770.984314,521.946533 
	C773.912048,524.850159 776.831177,529.933411 779.825134,529.985474 
	C782.786255,530.036926 785.845398,525.005493 788.843811,522.184753 
	C791.325867,519.849854 793.758484,519.691772 796.157288,522.282471 
	C798.718994,525.049133 797.025146,526.948425 794.955994,528.985901 
	C791.887268,532.007690 787.107666,534.971680 786.667664,538.421021 
	C786.348755,540.921021 791.873840,544.177063 794.810547,547.078186 
	C796.924744,549.166809 798.937317,551.254944 796.003723,554.173828 
	C793.309082,556.854980 790.904907,555.703613 788.690979,553.503723 
	C786.804321,551.629089 784.787537,549.813110 783.262939,547.663025 
	C780.909851,544.344788 779.046936,544.679688 776.936768,547.788635 
	C776.199219,548.875244 775.125427,549.733704 773.953247,550.948730 
z"/>
<path fill="#796044" opacity="1.000000" stroke="none" 
	d="
M804.826294,688.426392 
	C804.292419,692.538391 802.796814,695.432373 798.513489,695.008118 
	C793.873352,694.548462 794.049805,690.892761 794.053406,687.477905 
	C794.069824,671.995361 794.093018,656.512817 794.065613,641.030334 
	C794.059937,637.825623 794.511963,634.912903 798.129272,633.932922 
	C802.065063,632.866699 804.767883,635.905945 804.790100,641.537781 
	C804.851135,657.020142 804.824707,672.502808 804.826294,688.426392 
z"/>
<path fill="#8C7659" opacity="1.000000" stroke="none" 
	d="
M231.472565,486.086914 
	C236.572800,485.656036 238.483307,481.849426 241.055893,478.943848 
	C245.839874,473.540771 249.010406,466.460602 256.669250,464.078552 
	C256.826599,464.029663 256.965668,463.923645 257.122070,463.869873 
	C259.443878,463.071564 262.233398,461.467102 264.156464,463.022583 
	C266.480286,464.902222 265.008667,467.997711 264.256653,470.483887 
	C259.558380,486.016815 246.640594,496.552643 232.972549,496.131653 
	C228.781601,496.002563 225.225037,494.429565 222.243454,491.544006 
	C221.431335,490.758057 220.263382,489.740204 222.803940,489.115509 
	C223.753082,488.041779 224.881210,487.956299 226.164856,487.513977 
	C227.042450,487.242157 227.635132,487.106903 228.494324,486.847717 
	C228.950073,486.694916 229.130402,486.633362 229.578613,486.480957 
	C230.201660,486.276154 230.561234,486.178467 231.472565,486.086914 
z"/>
<path fill="#856C53" opacity="1.000000" stroke="none" 
	d="
M384.757202,270.821899 
	C390.742950,273.253693 395.726776,276.540558 400.384827,280.299866 
	C404.509338,283.628571 404.356140,288.686188 399.751648,291.455475 
	C389.514648,297.612305 379.105347,303.484741 368.716766,309.385986 
	C366.177460,310.828461 363.198334,311.009644 361.621735,308.295593 
	C359.898315,305.328766 361.008667,302.573486 364.142365,300.792816 
	C370.924530,296.938965 377.683838,293.044586 384.434967,289.136475 
	C390.734131,285.490021 390.725464,285.216187 384.468201,281.453369 
	C383.472168,280.854431 382.471863,280.262543 381.249664,279.418030 
	C379.297211,274.331940 379.713928,273.265289 384.757202,270.821899 
z"/>
<path fill="#806248" opacity="1.000000" stroke="none" 
	d="
M223.156708,633.826965 
	C227.657181,633.814941 229.019470,636.235413 229.028107,639.927795 
	C229.066177,656.206116 229.102707,672.484619 229.201767,688.762634 
	C229.223099,692.264404 227.940506,694.805847 224.250320,694.890198 
	C220.441589,694.977356 219.050903,691.945068 219.021561,688.840637 
	C218.864578,672.231445 218.947388,655.619995 218.947876,639.009338 
	C218.947952,636.365356 220.138947,634.600586 223.156708,633.826965 
z"/>
<path fill="#917B61" opacity="1.000000" stroke="none" 
	d="
M246.267746,460.784851 
	C243.558075,463.911163 241.034973,466.759735 238.696915,469.752899 
	C234.283829,475.402405 228.400436,478.504242 221.504440,479.804688 
	C219.892120,480.108734 217.665512,480.804840 218.092117,477.450439 
	C219.616577,465.463379 233.432404,450.425720 245.395401,447.769287 
	C251.464981,446.421539 256.873291,447.472778 261.740570,451.936188 
	C262.033813,452.421875 262.178741,452.589691 262.158081,453.044556 
	C260.684021,454.262878 259.103088,453.982300 257.362366,454.380157 
	C256.874359,454.511871 256.681976,454.569275 256.206055,454.717224 
	C255.178848,455.059723 254.451935,455.343231 253.637756,456.104492 
	C253.241592,456.446350 253.075058,456.579407 252.636566,456.893250 
	C250.257050,457.964752 248.586639,459.583679 246.267746,460.784851 
z"/>
<path fill="#856C53" opacity="1.000000" stroke="none" 
	d="
M522.642090,855.666016 
	C515.697998,861.956421 509.137695,861.083130 502.401093,855.905823 
	C499.787750,853.897339 496.647766,852.581604 493.988281,850.623596 
	C491.407166,848.723206 489.816650,846.098816 491.828735,842.890930 
	C493.727875,839.863098 496.403351,841.051270 498.918427,842.053772 
	C502.329010,843.413208 505.527618,845.191589 508.459412,847.377136 
	C511.170441,849.398071 513.514771,849.827454 516.425110,847.464722 
	C519.107117,845.287476 522.230591,843.610901 525.290039,841.954712 
	C528.049255,840.460938 530.973328,840.402405 532.640442,843.493042 
	C534.160278,846.310608 533.371521,849.081970 530.654846,850.909485 
	C528.183289,852.572144 525.531128,853.966431 522.642090,855.666016 
z"/>
<path fill="#F7F7F7" opacity="1.000000" stroke="none" 
	d="
M251.279205,545.295837 
	C249.242249,547.036194 247.485306,548.557434 245.695435,550.038879 
	C243.421829,551.920715 241.350784,551.177246 239.526154,549.357605 
	C237.553528,547.390381 238.189514,545.438660 239.931000,543.717346 
	C242.766312,540.914856 245.479721,537.942200 248.590210,535.477600 
	C251.862259,532.884949 251.091019,531.162354 248.268311,528.970581 
	C245.388275,526.734375 242.784164,524.144531 240.037689,521.734070 
	C238.281143,520.192383 236.878540,518.536377 238.836243,516.274963 
	C240.539597,514.307312 242.810547,512.516357 245.228241,514.519165 
	C251.229156,519.490417 257.079224,524.667908 262.686615,530.077026 
	C264.650757,531.971741 263.679108,534.345703 261.614502,536.127930 
	C258.218597,539.059448 254.897339,542.077515 251.279205,545.295837 
z"/>
<path fill="#201D14" opacity="1.000000" stroke="none" 
	d="
M223.743561,533.740967 
	C227.076691,531.328918 227.080124,529.429626 223.842972,527.229248 
	C221.950867,525.943115 220.307968,524.147400 218.928375,522.300537 
	C218.013794,521.076111 214.521957,520.339783 217.422867,517.805176 
	C219.657913,515.852295 221.738388,513.395630 225.041977,516.465271 
	C229.771881,520.860229 234.664673,525.082092 239.551422,529.304382 
	C240.846390,530.423218 240.943695,531.327759 239.864059,532.637146 
	C235.736740,537.642639 230.505157,541.442017 225.631393,545.614441 
	C223.849136,547.140259 221.634811,547.583496 219.231094,545.874573 
	C216.097855,543.646912 215.210175,541.673096 218.526016,538.896973 
	C220.305176,537.407532 221.846313,535.633667 223.743561,533.740967 
z"/>
<path fill="#F6F6F5" opacity="1.000000" stroke="none" 
	d="
M471.559387,798.474976 
	C473.277649,799.545349 474.721222,800.369080 476.138824,801.235229 
	C481.255920,804.361816 481.148804,804.291321 477.523438,809.247009 
	C476.113556,811.174316 475.019928,811.348450 473.050995,810.130005 
	C467.408813,806.638306 461.738831,803.171997 455.906738,800.015442 
	C453.090393,798.491089 454.030212,796.945984 455.302521,795.348999 
	C456.592712,793.729675 456.650513,789.922424 460.438843,792.126343 
	C464.023865,794.212036 467.659454,796.210754 471.559387,798.474976 
z"/>
<path fill="#2F2315" opacity="1.000000" stroke="none" 
	d="
M505.858337,827.213440 
	C501.224823,822.022400 502.334991,814.343140 507.623840,811.940796 
	C511.545593,810.159302 514.490173,811.237915 517.242371,814.336487 
	C519.910400,817.340088 521.341309,820.635010 519.080688,824.149353 
	C516.838379,827.635376 513.460022,829.726624 508.950043,828.483215 
	C508.001740,828.221802 507.096649,827.803650 505.858337,827.213440 
z"/>
<path fill="#8C7659" opacity="1.000000" stroke="none" 
	d="
M384.964050,270.650330 
	C382.204956,272.491974 380.490570,274.789368 381.017273,278.756134 
	C375.238861,276.001099 369.425873,272.879913 363.675964,269.646484 
	C360.799591,268.028931 359.768402,265.305359 361.292267,262.488983 
	C363.030457,259.276489 365.967133,259.283325 368.965546,261.065216 
	C374.215118,264.184967 379.477997,267.282410 384.964050,270.650330 
z"/>
<path fill="#F6F6F5" opacity="1.000000" stroke="none" 
	d="
M488.849731,788.618652 
	C487.153046,793.535767 484.530273,793.681458 480.749084,791.318604 
	C476.257721,788.512085 471.595734,785.945557 466.856049,783.578796 
	C461.944733,781.126465 466.656158,779.094849 467.014282,776.954468 
	C467.446533,774.371155 469.083527,774.531677 471.042694,775.694458 
	C476.317047,778.824646 481.671265,781.819946 486.960480,784.925476 
	C488.177216,785.639832 489.843292,786.227112 488.849731,788.618652 
z"/>
<path fill="#F6F6F5" opacity="1.000000" stroke="none" 
	d="
M568.129761,797.881348 
	C565.613281,805.027649 558.976318,806.451050 553.475037,808.862244 
	C550.879028,810.000061 550.432556,805.743286 549.033508,803.928284 
	C547.976440,802.557007 548.089050,801.285156 549.744446,800.248352 
	C553.098694,798.147583 556.311462,795.813904 559.716736,793.803345 
	C564.574646,790.935242 566.308167,791.762878 568.129761,797.881348 
z"/>
<path fill="#F6F6F5" opacity="1.000000" stroke="none" 
	d="
M541.883911,791.392578 
	C537.097839,784.663574 537.101379,784.669861 543.605164,780.969055 
	C545.044983,780.149719 546.523560,779.370056 547.856812,778.397339 
	C551.192810,775.963257 553.151733,778.032898 554.690430,780.592102 
	C556.186096,783.079773 555.923462,785.672058 552.926636,786.746033 
	C549.143311,788.101746 546.592163,792.080139 541.883911,791.392578 
z"/>
<path fill="#856C53" opacity="1.000000" stroke="none" 
	d="
M324.041016,353.026245 
	C320.479706,350.741180 319.803131,347.924377 321.995239,344.833282 
	C323.966064,342.054199 326.794403,341.388397 329.850952,343.123840 
	C332.471100,344.611481 333.539825,346.959442 332.395630,349.824188 
	C330.918976,353.521179 328.168121,354.691803 324.041016,353.026245 
z"/>
<path fill="#856C53" opacity="1.000000" stroke="none" 
	d="
M694.244690,350.996246 
	C698.320984,350.948090 700.241516,352.785919 700.217712,356.454254 
	C700.198120,359.473083 698.884949,361.614197 695.642761,361.974670 
	C692.947388,362.274414 690.433777,361.680176 689.667725,358.743591 
	C688.707336,355.062683 689.833496,352.177856 694.244690,350.996246 
z"/>
<path fill="#856C53" opacity="1.000000" stroke="none" 
	d="
M268.238647,316.499634 
	C267.727692,312.409241 269.351990,309.801117 272.994659,309.317535 
	C275.784149,308.947205 278.261719,310.397858 278.911835,313.440674 
	C279.561188,316.479950 278.673126,319.058105 275.503998,320.308472 
	C271.917419,321.723572 269.906738,319.748291 268.238647,316.499634 
z"/>
<path fill="#856C53" opacity="1.000000" stroke="none" 
	d="
M621.038086,234.778473 
	C623.592712,233.540878 625.924622,233.182480 627.898804,234.860413 
	C630.143066,236.767883 630.791504,239.337692 629.354492,242.002823 
	C628.027039,244.465027 625.674683,245.505341 623.026306,244.678970 
	C620.210205,243.800278 618.803284,241.605789 619.027588,238.556259 
	C619.129456,237.172058 619.861389,236.070129 621.038086,234.778473 
z"/>
<path fill="#917B61" opacity="1.000000" stroke="none" 
	d="
M737.990234,307.843628 
	C741.427002,306.123749 744.064758,306.684265 746.031616,309.577606 
	C747.367859,311.543213 747.292480,313.569519 745.989441,315.568268 
	C744.535156,317.799133 742.404419,318.398407 739.974976,317.879883 
	C735.716614,316.970947 734.738098,312.666962 737.990234,307.843628 
z"/>
<path fill="#8C7659" opacity="1.000000" stroke="none" 
	d="
M354.602509,646.807495 
	C352.220856,649.588501 349.572021,649.849121 346.855042,648.361206 
	C344.802002,647.236877 344.015564,645.078064 344.295929,642.869202 
	C344.590881,640.545044 346.269226,639.202881 348.545624,638.606079 
	C353.083832,637.416443 356.029144,641.111084 354.602509,646.807495 
z"/>
<path fill="#8C7659" opacity="1.000000" stroke="none" 
	d="
M516.223877,736.789307 
	C518.263916,739.472839 518.397888,741.944824 516.667664,744.404724 
	C515.456787,746.126221 513.623779,746.267761 511.762299,745.955444 
	C509.434296,745.564758 507.900818,744.097046 507.187439,741.908691 
	C506.509888,739.830200 507.152313,737.993469 508.746399,736.523682 
	C511.132660,734.323425 513.549622,734.896301 516.223877,736.789307 
z"/>
<path fill="#8C7659" opacity="1.000000" stroke="none" 
	d="
M697.280884,401.838226 
	C698.800842,404.690887 699.344604,407.338684 696.785461,409.340393 
	C694.676758,410.989716 692.122742,411.200562 689.824219,409.545715 
	C687.648315,407.979218 687.379700,405.634369 688.040100,403.252502 
	C689.162903,399.202576 692.755859,398.562317 697.280884,401.838226 
z"/>
<path fill="#856C53" opacity="1.000000" stroke="none" 
	d="
M732.872803,612.347534 
	C730.434204,609.632629 730.312256,607.027954 732.110535,604.395447 
	C733.329407,602.611145 735.094299,601.815979 737.264038,602.320435 
	C739.575134,602.857727 740.924561,604.410828 741.510132,606.662415 
	C742.651978,611.052490 738.958740,613.691406 732.872803,612.347534 
z"/>
<path fill="#8C7659" opacity="1.000000" stroke="none" 
	d="
M219.869202,440.116211 
	C215.282028,440.234497 213.292923,437.926239 213.574326,434.015137 
	C213.782089,431.127289 215.622116,428.862030 218.768723,429.208984 
	C221.996658,429.564911 224.203476,431.597168 224.261902,435.141571 
	C224.305847,437.808746 222.787247,439.391235 219.869202,440.116211 
z"/>
<path fill="#8C7659" opacity="1.000000" stroke="none" 
	d="
M399.196655,236.427368 
	C401.836792,233.971817 404.461182,233.078781 406.831543,235.850616 
	C408.859985,238.222595 409.023621,241.128754 407.007141,243.647354 
	C405.137726,245.982300 402.337341,245.763626 400.155670,244.527161 
	C396.842896,242.649628 397.320038,239.654099 399.196655,236.427368 
z"/>
<path fill="#5F462E" opacity="1.000000" stroke="none" 
	d="
M227.009460,488.206299 
	C225.969803,488.734100 224.886581,488.944183 223.469452,489.115875 
	C222.599167,488.732361 222.101273,488.202820 221.518219,488.081055 
	C220.366531,487.840515 218.928528,487.873199 219.089722,486.261261 
	C219.257324,484.585358 220.738342,484.996735 221.848862,485.068909 
	C225.020752,485.275055 228.174347,485.376770 231.582397,484.026428 
	C231.964462,484.453644 231.944016,484.918884 231.971680,485.730225 
	C232.019806,486.076324 231.993073,486.026031 232.021484,486.024933 
	C231.574646,486.404755 230.977158,486.471497 230.209534,486.854126 
	C229.993652,487.052521 229.997681,486.996826 230.023071,487.008423 
	C229.184662,487.890686 227.825531,487.003143 227.009460,488.206299 
z"/>
<path fill="#796044" opacity="1.000000" stroke="none" 
	d="
M262.661621,453.672729 
	C263.686401,456.251556 261.820068,456.530914 260.252716,456.967255 
	C257.385376,457.765472 254.493683,458.476257 251.214813,459.340607 
	C250.164658,457.840576 251.448792,457.228149 252.678696,456.197510 
	C252.972183,455.959625 252.998779,456.001221 252.982422,455.982117 
	C253.684891,455.206238 254.650269,454.846985 255.766266,454.162292 
	C255.992233,453.958282 256.003937,453.999603 255.984955,453.989624 
	C257.997528,453.043152 260.144714,453.710724 262.661621,453.672729 
z"/>
<path fill="#2F2315" opacity="1.000000" stroke="none" 
	d="
M252.625549,455.843567 
	C252.326721,456.895050 251.681274,457.830475 250.926651,459.111816 
	C249.591309,460.383118 248.240723,460.975342 246.338486,461.000244 
	C247.480530,458.512604 249.625992,456.817627 252.625549,455.843567 
z"/>
<path fill="#2F2315" opacity="1.000000" stroke="none" 
	d="
M263.058136,453.582031 
	C261.009827,453.921753 258.927032,454.026093 256.405090,454.055023 
	C257.316132,452.045349 259.365265,453.146271 261.473694,452.724609 
	C262.052338,452.626251 262.238861,452.604889 262.662415,452.735443 
	C262.899506,452.887360 263.023651,453.346680 263.058136,453.582031 
z"/>
<path fill="#5F462E" opacity="1.000000" stroke="none" 
	d="
M234.144501,481.956543 
	C234.106155,481.977814 234.182861,481.935242 234.144501,481.956543 
z"/>
<path fill="#5F462E" opacity="1.000000" stroke="none" 
	d="
M233.248077,482.922180 
	C233.202408,482.743256 233.379211,482.467743 233.792725,482.106323 
	C234.029465,482.020386 234.000656,481.998291 233.989288,481.984009 
	C233.808792,482.255005 233.639679,482.540283 233.248077,482.922180 
z"/>
<path fill="#5F462E" opacity="1.000000" stroke="none" 
	d="
M232.989410,482.985413 
	C232.808990,483.255707 232.638947,483.538849 232.226913,483.905212 
	C231.984924,483.988403 232.000626,484.000946 232.007324,484.009155 
	C232.188522,483.739166 232.363022,483.460999 232.781570,483.100800 
	C233.025604,483.018768 232.999771,482.998291 232.989410,482.985413 
z"/>
<path fill="#795B3F" opacity="1.000000" stroke="none" 
	d="
M262.796417,452.693359 
	C262.722321,452.871582 262.545105,452.855774 262.116852,452.743774 
	C261.865845,452.647614 261.862579,452.448914 261.875732,452.351471 
	C262.208466,452.167511 262.476624,452.249298 262.796417,452.693359 
z"/>
<path fill="#060403" opacity="1.000000" stroke="none" 
	d="
M656.581116,596.517212 
	C659.241394,558.231689 663.522217,520.553711 666.591614,482.769897 
	C666.877502,479.250610 668.035828,478.361542 671.356018,478.595612 
	C675.830627,478.911072 680.356079,478.953461 684.834412,478.687683 
	C699.996643,477.787811 714.677673,494.682129 709.619507,512.321228 
	C702.742554,536.303467 693.631287,559.545471 685.830444,583.223511 
	C683.594482,590.010559 681.274353,596.770508 678.920654,603.517761 
	C675.601379,613.033386 669.174744,618.717041 658.895630,619.672729 
	C655.945557,619.947021 654.264404,619.662048 654.799500,615.839111 
	C655.673767,609.593872 655.966980,603.267273 656.581116,596.517212 
z"/>
<path fill="#050402" opacity="1.000000" stroke="none" 
	d="
M576.648071,528.881470 
	C576.902466,538.764709 577.427429,548.366272 575.141968,557.894348 
	C568.948059,583.717834 546.657043,603.184082 520.456360,606.303223 
	C511.996033,607.310425 503.967682,606.239014 495.381592,605.044312 
	C490.726715,603.260193 486.248322,601.796692 482.286316,599.458252 
	C457.590332,584.882446 444.780121,553.582397 451.896606,525.360107 
	C456.802460,505.368591 469.192169,491.816559 486.145111,481.615417 
	C498.482330,474.191711 507.865845,464.176483 510.368408,448.260223 
	C524.166565,462.556519 536.450562,476.461395 536.096558,497.204224 
	C535.953430,505.593964 532.648010,512.324829 526.445801,517.737122 
	C519.744080,523.585327 511.833618,527.565552 504.160736,531.903503 
	C496.579834,536.189514 489.400757,541.012390 483.953247,547.947937 
	C478.236115,555.226807 475.621307,563.359558 477.750244,572.647827 
	C479.680878,581.070862 487.342926,588.004944 495.655579,588.842407 
	C490.596985,571.722351 494.438934,561.748840 510.050934,552.185181 
	C515.859863,548.626770 521.768188,545.178589 527.865967,542.153259 
	C547.118591,532.601379 560.052124,514.568909 548.982788,486.025177 
	C564.365601,496.930267 572.037598,511.691803 576.648071,528.881470 
z"/>
<path fill="#5F462E" opacity="1.000000" stroke="none" 
	d="
M590.069519,646.605957 
	C588.079590,646.665710 586.149353,646.248352 584.197510,646.000061 
	C581.147766,645.612061 579.821289,643.796448 580.034485,640.905823 
	C580.276978,637.617920 579.743591,634.740723 577.259338,632.301208 
	C576.524536,631.579590 575.838257,629.959961 576.154175,629.152893 
	C578.439270,623.315125 576.570679,617.338013 576.269714,611.605408 
	C576.053223,607.481140 576.244751,604.696167 578.489014,601.084351 
	C580.523804,597.809631 576.690247,596.599487 573.441162,596.017212 
	C576.407227,575.478088 578.764343,554.830872 580.072998,534.062927 
	C580.165466,532.595764 580.651917,531.153442 580.935547,529.270752 
	C580.915833,528.841980 580.993896,528.516296 581.054260,528.360107 
	C587.739502,527.360107 594.364319,526.516296 601.426514,525.694092 
	C601.140930,534.955383 600.501221,544.202454 599.671265,553.432556 
	C598.886353,562.160950 597.875610,570.868958 597.010986,579.590515 
	C595.705566,592.757751 594.249329,605.914185 593.231567,619.104126 
	C592.632568,626.868408 592.062683,634.624695 590.983093,642.336487 
	C590.800537,643.640625 590.412598,644.916016 590.069519,646.605957 
z"/>
<path fill="#080705" opacity="1.000000" stroke="none" 
	d="
M746.621460,710.071411 
	C739.314087,704.516357 732.330078,699.200989 725.346130,693.885620 
	C724.817627,693.971130 724.289185,694.056702 723.760742,694.142273 
	C723.760742,703.181824 723.749023,712.221375 723.769897,721.260925 
	C723.774475,723.228455 724.159973,725.101440 721.677795,726.233826 
	C719.040771,727.436951 718.558228,725.021545 717.322632,724.065369 
	C705.353760,714.802795 693.454651,705.450317 681.538391,696.119751 
	C680.110962,695.002075 678.700439,693.862915 676.906250,692.434509 
	C680.408020,690.402527 683.598511,688.691467 686.634827,686.740601 
	C688.704224,685.411011 689.731384,687.037537 690.914429,687.977600 
	C697.636353,693.319275 704.295959,698.739380 711.506897,704.560669 
	C711.506897,695.442078 711.432190,687.084290 711.574280,678.730164 
	C711.600525,677.186218 710.967346,674.937744 712.505371,674.138855 
	C714.090698,673.315430 715.445679,675.156494 716.798828,676.049683 
	C723.544373,680.502319 730.289246,684.956055 737.703186,689.851013 
	C736.729736,680.777771 736.101318,672.582886 734.874817,664.478516 
	C734.263916,660.441406 735.071411,658.125366 739.220398,657.260681 
	C740.655823,656.961487 742.107666,656.384338 743.355042,655.614807 
	C745.814819,654.097229 746.461365,654.955383 746.679993,657.508972 
	C748.039307,673.386841 749.363708,689.270264 751.027649,705.117493 
	C751.410278,708.761658 749.869324,709.810486 746.621460,710.071411 
z"/>
<path fill="#080706" opacity="1.000000" stroke="none" 
	d="
M614.626343,735.987915 
	C624.682495,741.033142 628.066345,749.602173 623.940552,759.832581 
	C622.699768,762.909180 623.598389,763.929565 626.260864,764.853821 
	C630.334229,766.267761 634.335266,767.890320 638.368835,769.419373 
	C639.305847,769.774536 640.465454,770.059265 640.588196,771.174988 
	C640.714172,772.319336 639.615295,772.728455 638.715576,773.127136 
	C638.563293,773.194519 638.368713,773.214661 638.258850,773.322876 
	C631.650696,779.829468 625.308838,779.206238 618.896545,772.886902 
	C617.108398,771.124634 607.600159,773.406250 606.577332,775.579956 
	C606.368835,776.023193 606.648743,776.815002 606.914062,777.339661 
	C607.663452,778.821655 608.493713,780.265381 609.343079,781.693787 
	C613.578491,788.816467 613.458618,788.586670 606.247192,792.585999 
	C603.150085,794.303589 602.129517,793.341736 600.639832,790.791199 
	C593.259277,778.155029 585.760986,765.586487 578.171692,753.074524 
	C577.173157,751.428345 577.099060,750.775024 578.796753,749.666870 
	C586.180908,744.847290 593.620178,740.127930 601.569580,736.288818 
	C605.682861,734.302246 609.972473,734.715149 614.626343,735.987915 
z"/>
<path fill="#080706" opacity="1.000000" stroke="none" 
	d="
M671.285889,707.839600 
	C664.793701,711.683838 658.712891,715.448608 652.489685,718.961121 
	C649.885498,720.430969 648.640686,721.570007 650.863770,724.539978 
	C652.520630,726.753601 653.061890,729.724121 656.889404,727.208618 
	C661.044495,724.477722 665.695557,722.487976 669.779297,719.666931 
	C672.434326,717.832703 673.784424,718.156799 675.154907,720.821472 
	C675.757996,721.994202 676.542297,723.127441 677.454529,724.076538 
	C679.375366,726.075012 678.808472,727.276855 676.576660,728.528992 
	C671.503174,731.375610 666.568604,734.469910 661.494019,737.314392 
	C659.012451,738.705322 659.191467,740.401855 660.790222,742.054565 
	C662.220642,743.533325 662.384827,747.360474 666.172668,745.104309 
	C672.451477,741.364624 678.806030,737.745483 685.215393,734.234009 
	C691.048767,731.038208 690.805908,737.458435 693.053650,739.624329 
	C695.873901,742.341614 692.164001,742.758118 690.875793,743.518433 
	C681.429810,749.093323 671.838135,754.421936 662.410583,760.026978 
	C659.615906,761.688538 658.161255,761.890808 656.302002,758.592957 
	C649.201721,745.998718 641.817383,733.560852 634.320496,721.197144 
	C632.826660,718.733521 633.015930,717.718567 635.479248,716.316467 
	C645.010254,710.891113 654.464050,705.326904 663.862915,699.675232 
	C666.415649,698.140137 668.385376,697.718201 669.229248,701.143616 
	C669.792480,703.430176 673.934326,704.367859 671.285889,707.839600 
z"/>
<path fill="#090707" opacity="1.000000" stroke="none" 
	d="
M380.059448,728.708984 
	C378.422424,740.478271 370.743103,748.289673 358.856293,750.715637 
	C347.997406,752.931702 335.495789,747.287354 329.719391,737.560730 
	C319.280212,719.982605 329.133240,698.939941 349.164917,697.443787 
	C365.635742,696.213562 381.410889,709.847107 380.059448,728.708984 
z"/>
<path fill="#070706" opacity="1.000000" stroke="none" 
	d="
M428.066528,779.171387 
	C417.886963,785.756470 407.947510,786.163086 397.889374,779.713989 
	C393.140564,776.669189 388.320679,773.731689 383.472900,770.846558 
	C381.857147,769.884827 381.661102,769.141541 382.588806,767.359192 
	C389.569153,753.948792 397.935791,741.349548 405.319244,728.179016 
	C405.952332,727.049744 406.507385,726.347351 407.981018,727.223938 
	C413.966980,730.784912 420.335022,733.793396 425.978485,737.822998 
	C440.602203,748.264954 441.495270,766.632996 428.066528,779.171387 
z"/>
<path fill="#070706" opacity="1.000000" stroke="none" 
	d="
M320.976013,679.106567 
	C323.109070,682.562866 324.009857,686.096924 325.129547,689.566772 
	C323.616638,690.712585 321.869507,690.398254 320.283295,690.743774 
	C316.180695,691.637634 313.520081,690.943359 311.602844,686.313416 
	C309.114929,680.305481 303.603851,677.433472 297.056244,677.858582 
	C291.281769,678.233521 287.101715,681.459290 285.006958,686.927734 
	C282.588562,693.240906 284.443451,698.716675 288.966309,703.358154 
	C292.252655,706.730591 296.650787,707.952332 300.938477,706.624512 
	C304.991882,705.369202 305.718170,707.151184 306.590729,710.238037 
	C308.443237,716.791565 308.550232,716.761353 301.862488,717.904907 
	C292.019928,719.587891 280.789368,714.751587 275.975952,706.757080 
	C270.050110,696.914978 270.443726,684.290100 276.942261,675.763672 
	C283.240112,667.500610 294.368774,663.827271 304.568665,666.556946 
	C311.648804,668.451782 317.225403,672.283630 320.976013,679.106567 
z"/>
<path fill="#090707" opacity="1.000000" stroke="none" 
	d="
M759.952698,395.857544 
	C756.865417,396.734711 754.821716,400.255310 752.212891,399.450500 
	C748.164001,398.201416 744.515869,395.641083 740.717529,393.599792 
	C739.684937,393.044830 739.689270,391.991669 739.704285,390.976440 
	C739.724060,389.644226 739.965332,388.264252 739.705872,386.987213 
	C738.082214,378.997803 740.334167,373.558716 748.742676,370.973663 
	C751.385437,370.161224 753.175720,369.708405 755.990356,370.664642 
	C764.350891,373.505035 766.753235,378.896820 765.694824,387.315216 
	C765.178589,391.421417 765.124207,394.792969 759.952698,395.857544 
z"/>
<path fill="#43311D" opacity="1.000000" stroke="none" 
	d="
M751.998657,344.792969 
	C750.635437,343.282990 750.372559,341.931885 752.108032,341.024506 
	C753.113098,340.498962 754.078247,341.021240 754.403992,342.082672 
	C754.937134,343.819916 754.301453,344.896515 751.998657,344.792969 
z"/>
<path fill="#43311D" opacity="1.000000" stroke="none" 
	d="
M754.208740,427.177063 
	C753.645386,429.285706 752.476807,429.416992 751.199341,428.451935 
	C750.273438,427.752411 750.290100,426.673462 751.167358,425.907440 
	C752.551758,424.698730 753.525940,425.355164 754.208740,427.177063 
z"/>
<path fill="#090707" opacity="1.000000" stroke="none" 
	d="
M284.126312,566.261108 
	C287.536682,564.575989 289.568542,565.997192 290.776306,568.750061 
	C291.538574,570.487488 291.490265,572.465454 289.662079,573.651611 
	C287.451447,575.085999 285.145081,574.776367 283.312317,572.967529 
	C281.040314,570.725098 281.756805,568.500183 284.126312,566.261108 
z"/>
<path fill="#090707" opacity="1.000000" stroke="none" 
	d="
M311.001404,500.065002 
	C306.890167,500.065033 303.265045,500.065033 299.018372,500.065033 
	C302.942169,492.809814 306.618683,486.011871 310.775635,478.325562 
	C315.023590,485.748962 318.906342,492.534210 323.215759,500.065002 
	C318.899841,500.065002 315.193695,500.065002 311.001404,500.065002 
z"/>
<path fill="#070706" opacity="1.000000" stroke="none" 
	d="
M765.215698,596.452881 
	C765.284485,589.019409 768.503540,583.958679 773.455933,582.996887 
	C779.301025,581.861694 784.922852,584.941040 787.029053,590.431335 
	C789.407043,596.630127 786.790710,602.959900 780.763306,605.590271 
	C775.091614,608.065430 768.875793,605.368408 766.080139,599.193420 
	C765.741394,598.445190 765.544861,597.632629 765.215698,596.452881 
z"/>
<path fill="#090707" opacity="1.000000" stroke="none" 
	d="
M313.497375,301.855560 
	C318.068695,296.666016 322.473053,295.286499 327.331024,297.293488 
	C331.950287,299.201843 334.916809,304.325134 334.334564,309.388947 
	C333.765533,314.337738 330.199219,318.303162 325.168610,319.282166 
	C320.950317,320.103119 317.209167,318.979218 314.396088,315.646027 
	C310.872345,311.470856 310.859406,306.892029 313.497375,301.855560 
z"/>
<path fill="#080705" opacity="1.000000" stroke="none" 
	d="
M246.991791,595.534607 
	C246.113235,599.037903 244.859360,601.922363 241.961914,603.612915 
	C238.460114,605.656128 234.267303,605.716858 230.877960,604.604797 
	C228.612656,603.861389 230.136414,599.879089 229.931335,597.359253 
	C229.744019,595.057495 229.614624,592.685547 229.963760,590.422302 
	C230.397736,587.609131 227.956985,583.563416 231.513565,582.159668 
	C237.301376,579.875183 243.309219,582.731506 245.893433,587.869934 
	C247.058899,590.187317 247.143906,592.628174 246.991791,595.534607 
z"/>
<path fill="#060403" opacity="1.000000" stroke="none" 
	d="
M227.393936,488.414032 
	C226.425598,485.938110 228.551392,487.392334 229.713120,486.979919 
	C229.672302,488.159851 228.596909,488.039764 227.393936,488.414032 
z"/>
<path fill="#060403" opacity="1.000000" stroke="none" 
	d="
M230.321381,487.105316 
	C230.466141,486.694824 230.938629,486.337097 231.730515,486.001587 
	C231.933029,486.834229 231.296799,487.003235 230.321381,487.105316 
z"/>
<path fill="#2F2315" opacity="1.000000" stroke="none" 
	d="
M255.629898,453.912170 
	C255.802841,455.324921 254.728363,455.674133 253.302338,455.984375 
	C252.772171,454.209198 254.060776,454.082520 255.629898,453.912170 
z"/>
<path fill="#856C53" opacity="1.000000" stroke="none" 
	d="
M691.314331,517.369263 
	C688.449707,519.463196 685.762634,519.823364 683.451294,517.416321 
	C681.675293,515.566833 681.704346,513.288147 683.016724,511.018372 
	C684.444763,508.548615 686.710754,508.424316 689.054932,508.876617 
	C692.692322,509.578461 693.501831,512.362427 691.314331,517.369263 
z"/>
<path fill="#F6F6F5" opacity="1.000000" stroke="none" 
	d="
M601.639526,748.639893 
	C607.159973,745.505737 610.387268,745.831116 612.702087,749.517273 
	C615.269531,753.605713 614.117981,758.769897 609.955017,761.837219 
	C601.697693,767.921143 600.865295,767.764893 596.077087,759.232849 
	C592.855225,753.492004 592.855225,753.492004 601.639526,748.639893 
z"/>
<path fill="#FBFBFB" opacity="1.000000" stroke="none" 
	d="
M364.142975,734.018433 
	C357.231476,740.989441 348.089081,740.855957 342.132141,733.985352 
	C335.919342,726.819641 336.670074,717.574280 343.904449,712.158875 
	C349.021942,708.328247 357.061310,708.959290 362.226288,713.596985 
	C368.203979,718.964417 369.009338,726.432556 364.142975,734.018433 
z"/>
<path fill="#F9F9F9" opacity="1.000000" stroke="none" 
	d="
M405.946228,771.223389 
	C396.691681,766.254211 396.728027,766.276611 401.873688,757.932495 
	C404.489471,753.690796 407.143005,749.451599 409.405853,745.020447 
	C410.862976,742.167175 412.205902,742.171448 414.698395,743.719116 
	C419.629059,746.780640 424.224640,750.072998 425.013184,756.335327 
	C426.437225,767.644775 417.957703,774.393188 405.946228,771.223389 
z"/>
</svg>